<svg width="322" height="32" viewBox="0 0 322 32" fill="none" xmlns="http://www.w3.org/2000/svg">
<g clip-path="url(#clip0_2372_6393)">
<path d="M24.2251 16.3512L13.579 26.6654H0L16.8943 9.92198C23.175 3.71498 26.2029 2.69629 36.9115 2.69629H79.2111L70.0301 11.6722H38.1217C30.1208 11.6722 28.4181 12.2889 24.2226 16.3512M68.66 13.1054H38.3142C30.2558 13.1054 28.9957 13.7221 25.3403 17.3699L16.0317 26.6654H28.6231L31.6184 23.6742C33.5962 21.6993 34.4813 21.5095 38.4717 21.5095H60.2441L68.66 13.1054ZM71.9428 26.6654L96.0105 2.69629H81.0613L57.0587 26.6654H71.9453H71.9428Z" fill="#E10600"/>
<path d="M82.0504 26.6651C81.2929 26.6651 80.6628 26.4129 80.1627 25.9061C79.6602 25.4017 79.4102 24.7775 79.4102 24.0385C79.4102 23.2995 79.6602 22.6778 80.1577 22.1759C80.6553 21.6741 81.2829 21.4219 82.0404 21.4219C82.798 21.4219 83.4231 21.674 83.9181 22.1809C84.4132 22.6877 84.6607 23.3094 84.6607 24.0485C84.6607 24.7875 84.4157 25.4092 83.9231 25.9111C83.4306 26.4129 82.808 26.6651 82.0504 26.6651ZM82.0354 21.8338C81.4154 21.8338 80.8953 22.0486 80.4753 22.478C80.0577 22.9075 79.8477 23.4268 79.8477 24.0385C79.8477 24.6502 80.0577 25.1695 80.4753 25.599C80.8928 26.0284 81.4129 26.2432 82.0354 26.2432C82.658 26.2432 83.1756 26.0309 83.5956 25.604C84.0132 25.1795 84.2232 24.6577 84.2232 24.0435C84.2232 23.4293 84.0132 22.9075 83.5956 22.478C83.1781 22.0486 82.658 21.8338 82.0354 21.8338ZM81.5229 24.4754V25.5041H80.9453V22.5954H82.0404C82.4205 22.5954 82.703 22.6653 82.893 22.8076C83.0831 22.9499 83.1781 23.1596 83.1781 23.4418C83.1781 23.7239 83.1406 23.9336 83.0631 24.071C82.9855 24.2083 82.8555 24.3181 82.6705 24.403L83.2181 25.5066H82.6105L82.113 24.4779H81.5254L81.5229 24.4754ZM81.5129 23.0448V24.0235H82.1004C82.2805 24.0235 82.408 23.9861 82.488 23.9087C82.568 23.8313 82.608 23.7064 82.608 23.5341C82.608 23.2071 82.4005 23.0448 81.9904 23.0448H81.5129Z" fill="#E10600"/>
<path d="M102.012 26.6654V2.69629H122.046V7.96949H108.252V12.1241H122.046V17.2375H108.252V21.3922H122.046V26.6654H102.012Z" fill="black"/>
<path d="M128.988 12.1238H124.668V7.48975H129.181C131.101 7.48975 132.674 7.77688 133.901 8.35363C135.129 8.92789 136.072 9.75932 136.734 10.8454C137.394 9.75932 138.339 8.92789 139.567 8.35363C140.795 7.77937 142.367 7.48975 144.288 7.48975H153.601V12.1238H144.48C143.22 12.1238 142.297 12.4059 141.712 12.9702C141.125 13.5344 140.832 14.3933 140.832 15.5419V18.8326C140.832 20.111 141.125 20.9624 141.712 21.3893C142.3 21.8163 143.223 22.0285 144.48 22.0285H148.801V26.6625H144.288C142.367 26.6625 140.795 26.3754 139.567 25.7986C138.339 25.2244 137.397 24.4029 136.734 23.3368C136.072 24.4029 135.129 25.2219 133.901 25.7986C132.674 26.3729 131.101 26.6625 129.181 26.6625H124.668V22.0285H128.988C130.246 22.0285 131.169 21.8163 131.756 21.3893C132.344 20.9624 132.636 20.111 132.636 18.8326V15.5419C132.636 14.3908 132.344 13.5344 131.756 12.9702C131.169 12.4059 130.246 12.1238 128.988 12.1238Z" fill="black"/>
<path d="M151.137 31.4588V7.48975H164.771C167.138 7.48975 168.996 8.27873 170.339 9.8542C171.684 11.4322 172.354 13.5195 172.354 16.1186V18.0362C172.354 20.6353 171.681 22.7226 170.339 24.3006C168.994 25.8785 167.138 26.665 164.771 26.665H157.217V31.4588H151.137ZM162.688 12.2186H157.215V21.9336H162.688C163.988 21.9336 164.886 21.6365 165.376 21.0398C165.866 20.443 166.111 19.5167 166.111 18.2584V15.7341C166.111 14.4782 165.866 13.5769 165.376 13.0326C164.886 12.4883 163.988 12.2186 162.688 12.2186Z" fill="black"/>
<path d="M193.83 18.8678H180.101V18.9952C180.101 20.2086 180.369 21.0201 180.902 21.4245C181.434 21.829 182.352 22.0313 183.654 22.0313H193.383V26.6653H184.007C182.129 26.6653 180.544 26.458 179.254 26.0411C177.964 25.6266 176.929 25.0399 176.149 24.2833C175.368 23.5268 174.803 22.6155 174.453 21.5519C174.101 20.4858 173.926 19.3148 173.926 18.0364V15.607C173.926 13.0728 174.661 11.0429 176.134 9.5199C177.606 7.99687 180.016 7.23535 183.367 7.23535H184.647C186.44 7.23535 187.932 7.44758 189.127 7.87453C190.323 8.30148 191.265 8.9032 191.96 9.6797C192.653 10.4587 193.138 11.39 193.415 12.4761C193.693 13.5622 193.83 14.7656 193.83 16.0864V18.8678ZM185.35 11.5173H182.854C181.829 11.5173 181.114 11.742 180.709 12.189C180.304 12.6359 180.101 13.3824 180.101 14.4261V14.8405H188.07V14.4261C188.07 13.3824 187.862 12.6359 187.447 12.189C187.032 11.742 186.332 11.5173 185.35 11.5173Z" fill="black"/>
<path d="M196.163 14.6156C196.163 13.6992 196.3 12.8154 196.578 11.964C196.855 11.1126 197.293 10.356 197.89 9.6944C198.488 9.03525 199.26 8.50094 200.211 8.09646C201.161 7.69199 202.296 7.48975 203.618 7.48975H209.252V12.1238H204.994C203.906 12.1238 203.173 12.316 202.801 12.698C202.428 13.0825 202.241 13.7417 202.241 14.6805V26.665H196.16V14.6156H196.163Z" fill="black"/>
<path d="M217.253 5.18789H211.172V0.458984H217.253V5.18789ZM211.172 7.48992H217.253V26.6652H211.172V7.48992Z" fill="black"/>
<path d="M239.784 18.8678H226.055V18.9952C226.055 20.2086 226.322 21.0201 226.855 21.4245C227.387 21.829 228.305 22.0313 229.607 22.0313H239.336V26.6653H229.96C228.082 26.6653 226.497 26.458 225.207 26.0411C223.917 25.6266 222.882 25.0399 222.102 24.2833C221.322 23.5268 220.757 22.6155 220.406 21.5519C220.054 20.4858 219.879 19.3148 219.879 18.0364V15.607C219.879 13.0728 220.614 11.0429 222.087 9.5199C223.559 7.99687 225.97 7.23535 229.32 7.23535H230.6C232.393 7.23535 233.885 7.44758 235.081 7.87453C236.276 8.30148 237.218 8.9032 237.913 9.6797C238.606 10.4587 239.091 11.39 239.369 12.4761C239.646 13.5622 239.784 14.7656 239.784 16.0864V18.8678ZM231.303 11.5173H228.807C227.782 11.5173 227.067 11.742 226.662 12.189C226.257 12.6359 226.055 13.3824 226.055 14.4261V14.8405H234.023V14.4261C234.023 13.3824 233.815 12.6359 233.4 12.189C232.985 11.742 232.285 11.5173 231.303 11.5173Z" fill="black"/>
<path d="M242.121 26.665V7.48975H254.027C256.823 7.48975 258.848 8.19384 260.108 9.59952C261.366 11.0052 261.996 12.9127 261.996 15.3196V26.665H255.915V15.1599C255.915 14.1811 255.75 13.482 255.42 13.0675C255.087 12.6531 254.455 12.4434 253.515 12.4434H248.202V26.665H242.121Z" fill="black"/>
<path d="M274.123 12.1238C272.863 12.1238 271.94 12.4059 271.355 12.9702C270.768 13.5344 270.475 14.3933 270.475 15.5419V18.8326C270.475 20.111 270.768 20.9624 271.355 21.3893C271.94 21.8163 272.865 22.0285 274.123 22.0285H281.324V26.6625H273.93C270.495 26.6625 268.02 25.916 266.507 24.4254C264.992 22.9348 264.234 20.8775 264.234 18.2584V15.9264C264.234 13.3047 264.992 11.2449 266.507 9.74184C268.022 8.23878 270.498 7.48975 273.93 7.48975H281.324V12.1238H274.123Z" fill="black"/>
<path d="M302.577 18.8678H288.848V18.9952C288.848 20.2086 289.113 21.0201 289.648 21.4245C290.18 21.829 291.098 22.0313 292.4 22.0313H302.129V26.6653H292.753C290.875 26.6653 289.29 26.458 288 26.0411C286.71 25.6266 285.675 25.0399 284.895 24.2833C284.115 23.5268 283.549 22.6155 283.199 21.5519C282.847 20.4858 282.672 19.3148 282.672 18.0364V15.607C282.672 13.0728 283.407 11.0429 284.88 9.5199C286.352 7.99687 288.763 7.23535 292.113 7.23535H293.393C295.186 7.23535 296.678 7.44758 297.874 7.87453C299.069 8.30148 300.011 8.9032 300.706 9.6797C301.399 10.4587 301.884 11.39 302.161 12.4761C302.439 13.5622 302.577 14.7656 302.577 16.0864V18.8678ZM294.096 11.5173H291.6C290.575 11.5173 289.86 11.742 289.455 12.189C289.05 12.6359 288.848 13.3824 288.848 14.4261V14.8405H296.816V14.4261C296.816 13.3824 296.608 12.6359 296.193 12.189C295.778 11.742 295.078 11.5173 294.096 11.5173Z" fill="black"/>
<path d="M315.151 19.9537L309.935 18.93C308.015 18.5455 306.547 17.8763 305.535 16.9176C304.522 15.9588 304.015 14.6805 304.015 13.0825C304.015 12.336 304.16 11.6244 304.447 10.9403C304.735 10.2587 305.182 9.66194 305.792 9.1501C306.4 8.63826 307.18 8.23379 308.127 7.93667C309.078 7.63955 310.203 7.48975 311.503 7.48975H321.039V12.1238H311.023C310.383 12.1238 309.955 12.2137 309.743 12.3959C309.53 12.5782 309.423 12.8054 309.423 13.0825C309.423 13.3597 309.518 13.5844 309.71 13.7542C309.903 13.9239 310.233 14.0538 310.703 14.1387L315.438 15.065C317.786 15.5344 319.466 16.231 320.479 17.1573C321.491 18.0836 321.999 19.3145 321.999 20.8475C321.999 22.5728 321.344 23.9735 320.031 25.0496C318.719 26.1257 316.728 26.6625 314.063 26.6625H298.254V22.0285H314.928C315.611 22.0285 316.081 21.9286 316.336 21.7239C316.591 21.5216 316.721 21.272 316.721 20.9723C316.721 20.6528 316.576 20.4231 316.288 20.2857C316.001 20.1484 315.621 20.0361 315.153 19.9512" fill="black"/>
</g>
<defs>
<clipPath id="clip0_2372_6393">
<rect width="322" height="31" fill="white" transform="translate(0 0.458984)"/>
</clipPath>
</defs>
</svg>
